<?xml version="1.0" encoding="utf-8"?>
<!-- Generator: Adobe Illustrator 21.0.0, SVG Export Plug-In . SVG Version: 6.00 Build 0)  -->
<!DOCTYPE svg PUBLIC "-//W3C//DTD SVG 1.1//EN" "http://www.w3.org/Graphics/SVG/1.1/DTD/svg11.dtd">
<svg version="1.1" id="Layer_1" xmlns="http://www.w3.org/2000/svg" xmlns:xlink="http://www.w3.org/1999/xlink" x="0px" y="0px"
	 width="2500px" height="1000px" viewBox="0 0 2500 1000" enable-background="new 0 0 2500 1000" xml:space="preserve">
<polygon fill="#2F2C2F" points="218,400 200,400 209.054,406.036 "/>
<path fill="#2F2C2F" d="M210.009,407.949c-0.264,0.272-0.609,0.408-0.954,0.408s-0.691-0.136-0.954-0.408l-7.331-4.673
	c-0.333-0.212-0.769,0.027-0.769,0.422V412c0,0.552,0.448,1,1,1h16c0.552,0,1-0.448,1-1v-8.296c0-0.396-0.439-0.635-0.771-0.42
	L210.009,407.949z"/>
<path fill="#2F2C2F" d="M709.673,406.205c1.155,1.154,2.006,0.765,2.771,0l1.385-1.384c0.765-0.765,1.015-1.754,0-2.769
	l-0.693-0.692c-1.148-1.147-3.008-1.147-4.156,0l-0.049,0.049l-2.029,2.027l-3.463,3.461l-2.078,2.077
	c-1.148,1.147-1.148,3.006,0,4.153l0.693,0.692c1.041,1.04,2.006,0.765,2.771,0l1.385-1.384c0.765-0.765,1.124-1.646,0-2.769
	l-0.693-0.692l3.463-3.461L709.673,406.205z"/>
<polyline fill="none" stroke="#2F2C2F" stroke-width="3" stroke-linejoin="round" stroke-miterlimit="10" points="1013.5,13.5 
	1007.5,7.5 1013.5,1.5 "/>
<polyline fill="none" stroke="#2F2C2F" stroke-width="3" stroke-linejoin="round" stroke-miterlimit="10" points="1001.5,13.5 
	1007.5,7.5 1001.5,1.5 "/>
<g>
	
		<circle fill="none" stroke="#2F2C2F" stroke-width="3" stroke-linejoin="round" stroke-miterlimit="10" cx="807.5" cy="7.5" r="6"/>
	
		<line fill="none" stroke="#2F2C2F" stroke-width="3" stroke-linejoin="round" stroke-miterlimit="10" x1="811.5" y1="11.5" x2="817.5" y2="17.5"/>
</g>
<polyline fill="none" stroke="#2F2C2F" stroke-width="3" stroke-miterlimit="10" points="901.5,5.5 905.5,9.5 913.5,1.5 "/>
<polyline fill="none" stroke="#2F2C2F" stroke-width="3" stroke-miterlimit="10" points="413.5,8.5 407.5,2.5 401.5,8.5 "/>
<polyline fill="none" stroke="#2F2C2F" stroke-width="3" stroke-miterlimit="10" points="501.5,13.5 507.5,7.5 501.5,1.5 "/>
<polyline fill="none" stroke="#2F2C2F" stroke-width="3" stroke-miterlimit="10" points="601.5,1.5 607.5,7.5 613.5,1.5 "/>
<polyline fill="none" stroke="#2F2C2F" stroke-width="3" stroke-miterlimit="10" points="708.5,1.5 702.5,7.5 708.5,13.5 "/>
<g>
	<g>
		
			<line fill="none" stroke="#2F2C2F" stroke-width="3" stroke-linejoin="round" stroke-miterlimit="10" x1="7.5" y1="15" x2="7.5" y2="4"/>
	</g>
	<polyline fill="none" stroke="#2F2C2F" stroke-width="3" stroke-miterlimit="10" points="13.5,8.5 7.5,2.5 1.5,8.5 	"/>
</g>
<g>
	<g>
		
			<line fill="none" stroke="#FFFFFF" stroke-width="3" stroke-linejoin="round" stroke-miterlimit="10" x1="7.5" y1="115" x2="7.5" y2="104"/>
	</g>
	<polyline fill="none" stroke="#FFFFFF" stroke-width="3" stroke-miterlimit="10" points="13.5,108.5 7.5,102.5 1.5,108.5 	"/>
</g>
<g>
	<g>
		
			<line fill="none" stroke="#2F2C2F" stroke-width="3" stroke-linejoin="round" stroke-miterlimit="10" x1="100" y1="7.5" x2="111.5" y2="7.5"/>
	</g>
	<polyline fill="none" stroke="#2F2C2F" stroke-width="3" stroke-miterlimit="10" points="107,13.5 113,7.5 107,1.5 	"/>
</g>
<g>
	<g>
		
			<line fill="none" stroke="#FFFFFF" stroke-width="3" stroke-linejoin="round" stroke-miterlimit="10" x1="100" y1="107.5" x2="111.5" y2="107.5"/>
	</g>
	<polyline fill="none" stroke="#FFFFFF" stroke-width="3" stroke-miterlimit="10" points="107,113.5 113,107.5 107,101.5 	"/>
</g>
<g>
	<g>
		
			<line fill="none" stroke="#2F2C2F" stroke-width="3" stroke-linejoin="round" stroke-miterlimit="10" x1="207.5" y1="0" x2="207.5" y2="11.5"/>
	</g>
	<polyline fill="none" stroke="#2F2C2F" stroke-width="3" stroke-miterlimit="10" points="201.5,7 207.5,13 213.5,7 	"/>
</g>
<g>
	<g>
		
			<line fill="none" stroke="#FFFFFF" stroke-width="3" stroke-linejoin="round" stroke-miterlimit="10" x1="207.5" y1="100" x2="207.5" y2="111.5"/>
	</g>
	<polyline fill="none" stroke="#FFFFFF" stroke-width="3" stroke-linejoin="round" stroke-miterlimit="10" points="201.5,107 
		207.5,113 213.5,107 	"/>
</g>
<g>
	<g>
		
			<line fill="none" stroke="#2F2C2F" stroke-width="3" stroke-linejoin="round" stroke-miterlimit="10" x1="315" y1="7.5" x2="304" y2="7.5"/>
	</g>
	<polyline fill="none" stroke="#2F2C2F" stroke-width="3" stroke-miterlimit="10" points="308.5,1.5 302.5,7.5 308.5,13.5 	"/>
</g>
<polyline fill="none" stroke="#FFFFFF" stroke-width="3" stroke-linejoin="round" stroke-miterlimit="10" points="1013.5,113.5 
	1007.5,107.5 1013.5,101.5 "/>
<polyline fill="none" stroke="#FFFFFF" stroke-width="3" stroke-linejoin="round" stroke-miterlimit="10" points="1001.5,113.5 
	1007.5,107.5 1001.5,101.5 "/>
<g>
	
		<circle fill="none" stroke="#FFFFFF" stroke-width="3" stroke-linejoin="round" stroke-miterlimit="10" cx="807.5" cy="107.5" r="6"/>
	
		<line fill="none" stroke="#FFFFFF" stroke-width="3" stroke-linejoin="round" stroke-miterlimit="10" x1="811.5" y1="111.5" x2="817.5" y2="117.5"/>
</g>
<polyline fill="none" stroke="#FFFFFF" stroke-width="3" stroke-miterlimit="10" points="901.5,105.5 905.5,109.5 913.5,101.5 "/>
<polyline fill="none" stroke="#FFFFFF" stroke-width="3" stroke-miterlimit="10" points="413.5,108.5 407.5,102.5 401.5,108.5 "/>
<polyline fill="none" stroke="#FFFFFF" stroke-width="3" stroke-miterlimit="10" points="501.5,113.5 507.5,107.5 501.5,101.5 "/>
<polyline fill="none" stroke="#FFFFFF" stroke-width="3" stroke-miterlimit="10" points="601.5,101.5 607.5,107.5 613.5,101.5 "/>
<polyline fill="none" stroke="#FFFFFF" stroke-width="3" stroke-miterlimit="10" points="708.5,101.5 702.5,107.5 708.5,113.5 "/>
<polyline fill="none" stroke="#EF3340" stroke-width="3" stroke-linejoin="round" stroke-miterlimit="10" points="1013.5,213.5 
	1007.5,207.5 1013.5,201.5 "/>
<polyline fill="none" stroke="#EF3340" stroke-width="3" stroke-linejoin="round" stroke-miterlimit="10" points="1001.5,213.5 
	1007.5,207.5 1001.5,201.5 "/>
<g>
	
		<circle fill="none" stroke="#EF3340" stroke-width="3" stroke-linejoin="round" stroke-miterlimit="10" cx="807.5" cy="207.5" r="6"/>
	
		<line fill="none" stroke="#EF3340" stroke-width="3" stroke-linejoin="round" stroke-miterlimit="10" x1="811.5" y1="211.5" x2="817.5" y2="217.5"/>
</g>
<polyline fill="none" stroke="#EF3340" stroke-width="3" stroke-miterlimit="10" points="901.5,205.5 905.5,209.5 913.5,201.5 "/>
<polyline fill="none" stroke="#EF3340" stroke-width="3" stroke-miterlimit="10" points="413.5,208.5 407.5,202.5 401.5,208.5 "/>
<polyline fill="none" stroke="#EF3340" stroke-width="3" stroke-miterlimit="10" points="501.5,213.5 507.5,207.5 501.5,201.5 "/>
<polyline fill="none" stroke="#EF3340" stroke-width="3" stroke-miterlimit="10" points="601.5,201.5 607.5,207.5 613.5,201.5 "/>
<polyline fill="none" stroke="#EF3340" stroke-width="3" stroke-miterlimit="10" points="708.5,201.5 702.5,207.5 708.5,213.5 "/>
<g>
	<g>
		
			<line fill="none" stroke="#EF3340" stroke-width="3" stroke-linejoin="round" stroke-miterlimit="10" x1="7.5" y1="215" x2="7.5" y2="204"/>
	</g>
	<polyline fill="none" stroke="#EF3340" stroke-width="3" stroke-miterlimit="10" points="13.5,208.5 7.5,202.5 1.5,208.5 	"/>
</g>
<g>
	<g>
		
			<line fill="none" stroke="#EF3340" stroke-width="3" stroke-linejoin="round" stroke-miterlimit="10" x1="100" y1="207.5" x2="111.5" y2="207.5"/>
	</g>
	<polyline fill="none" stroke="#EF3340" stroke-width="3" stroke-miterlimit="10" points="107,213.5 113,207.5 107,201.5 	"/>
</g>
<g>
	<g>
		
			<line fill="none" stroke="#EF3340" stroke-width="3" stroke-linejoin="round" stroke-miterlimit="10" x1="207.5" y1="200" x2="207.5" y2="211.5"/>
	</g>
	<polyline fill="none" stroke="#EF3340" stroke-width="3" stroke-miterlimit="10" points="201.5,207 207.5,213 213.5,207 	"/>
</g>
<g>
	<g>
		
			<line fill="none" stroke="#EF3340" stroke-width="3" stroke-linejoin="round" stroke-miterlimit="10" x1="315" y1="207.5" x2="304" y2="207.5"/>
	</g>
	<polyline fill="none" stroke="#EF3340" stroke-width="3" stroke-miterlimit="10" points="308.5,201.5 302.5,207.5 308.5,213.5 	"/>
</g>
<polyline fill="none" stroke="#40AAB8" stroke-width="3" stroke-linejoin="round" stroke-miterlimit="10" points="1013.5,313.5 
	1007.5,307.5 1013.5,301.5 "/>
<polyline fill="none" stroke="#40AAB8" stroke-width="3" stroke-linejoin="round" stroke-miterlimit="10" points="1001.5,313.5 
	1007.5,307.5 1001.5,301.5 "/>
<g>
	
		<circle fill="none" stroke="#40AAB8" stroke-width="3" stroke-linejoin="round" stroke-miterlimit="10" cx="807.5" cy="307.5" r="6"/>
	
		<line fill="none" stroke="#40AAB8" stroke-width="3" stroke-linejoin="round" stroke-miterlimit="10" x1="811.5" y1="311.5" x2="817.5" y2="317.5"/>
</g>
<polyline fill="none" stroke="#40AAB8" stroke-width="3" stroke-miterlimit="10" points="901.5,305.5 905.5,309.5 913.5,301.5 "/>
<polyline fill="none" stroke="#40AAB8" stroke-width="3" stroke-miterlimit="10" points="413.5,308.5 407.5,302.5 401.5,308.5 "/>
<polyline fill="none" stroke="#40AAB8" stroke-width="3" stroke-miterlimit="10" points="501.5,313.5 507.5,307.5 501.5,301.5 "/>
<polyline fill="none" stroke="#40AAB8" stroke-width="3" stroke-miterlimit="10" points="601.5,301.5 607.5,307.5 613.5,301.5 "/>
<polyline fill="none" stroke="#40AAB8" stroke-width="3" stroke-miterlimit="10" points="708.5,301.5 702.5,307.5 708.5,313.5 "/>
<g>
	<g>
		
			<line fill="none" stroke="#40AAB8" stroke-width="3" stroke-linejoin="round" stroke-miterlimit="10" x1="7.5" y1="315" x2="7.5" y2="304"/>
	</g>
	<polyline fill="none" stroke="#40AAB8" stroke-width="3" stroke-miterlimit="10" points="13.5,308.5 7.5,302.5 1.5,308.5 	"/>
</g>
<g>
	<g>
		
			<line fill="none" stroke="#40AAB8" stroke-width="3" stroke-linejoin="round" stroke-miterlimit="10" x1="100" y1="307.5" x2="111.5" y2="307.5"/>
	</g>
	<polyline fill="none" stroke="#40AAB8" stroke-width="3" stroke-miterlimit="10" points="107,313.5 113,307.5 107,301.5 	"/>
</g>
<g>
	<g>
		
			<line fill="none" stroke="#40AAB8" stroke-width="3" stroke-linejoin="round" stroke-miterlimit="10" x1="207.5" y1="300" x2="207.5" y2="311.5"/>
	</g>
	<polyline fill="none" stroke="#40AAB8" stroke-width="3" stroke-miterlimit="10" points="201.5,307 207.5,313 213.5,307 	"/>
</g>
<g>
	<g>
		<line fill="none" stroke="#2F2C2F" stroke-width="3" stroke-miterlimit="10" x1="909.5" y1="400" x2="909.5" y2="411.5"/>
	</g>
	<polyline fill="none" stroke="#2F2C2F" stroke-width="3" stroke-miterlimit="10" points="903.5,407 909.5,413 915.5,407 	"/>
</g>
<g>
	<g>
		
			<line fill="none" stroke="#40AAB8" stroke-width="3" stroke-linejoin="round" stroke-miterlimit="10" x1="315" y1="307.5" x2="304" y2="307.5"/>
	</g>
	<polyline fill="none" stroke="#40AAB8" stroke-width="3" stroke-miterlimit="10" points="308.5,301.5 302.5,307.5 308.5,313.5 	"/>
</g>
<g>
	<path fill="#2F2C2F" d="M119.848,401.958c-0.743,0.27-1.485,0.54-2.363,0.608c0.81-0.54,1.418-1.283,1.755-2.228
		c-0.81,0.473-1.688,0.81-2.565,0.945c-0.743-0.81-1.823-1.283-2.903-1.283c-2.228,0-4.051,1.823-4.051,4.051
		c0,0.27,0,0.608,0.068,0.878c-3.376-0.135-6.413-1.823-8.439-4.253c-0.27,0.608-0.54,1.35-0.54,2.025
		c0,1.418,0.675,2.633,1.823,3.376c-0.675,0-1.283-0.203-1.823-0.54l0,0c0,1.958,1.35,3.578,3.24,3.983
		c-0.27,0.068-0.675,0.135-1.08,0.135c-0.27,0-0.54,0-0.743-0.068c0.54,1.688,2.025,2.7,3.781,2.768
		c-1.35,1.148-3.105,1.89-5.063,1.89c-0.27,0-0.675,0-0.945-0.068c1.823,1.148,3.916,1.823,6.211,1.823
		c7.426,0,11.477-6.143,11.477-11.612c0-0.135,0-0.405,0-0.54C118.7,403.443,119.375,402.7,119.848,401.958z"/>
</g>
<g>
	<path fill="#2F2C2F" d="M16.787,400H2.967C1.315,400,0,401.306,0,402.958v13.437C0,418.046,1.315,420,2.967,420H10v-8H9v-3h1
		v-1.874c0-2.214,1.051-3.126,3.667-3.126H16v2h-1.518c-1.016,0-1.482,0.694-1.482,1.404V409h2.862l-0.288,3H13v8h3.787
		c1.652,0,3.213-1.954,3.213-3.605v-13.437C20,401.306,18.439,400,16.787,400z"/>
</g>
<polygon fill="#FFFFFF" points="218,500 200,500 209.054,506.036 "/>
<path fill="#FFFFFF" d="M210.009,507.949c-0.264,0.272-0.609,0.408-0.954,0.408s-0.691-0.136-0.954-0.408l-7.331-4.673
	c-0.333-0.212-0.769,0.027-0.769,0.422V512c0,0.552,0.448,1,1,1h16c0.552,0,1-0.448,1-1v-8.296c0-0.396-0.439-0.635-0.771-0.42
	L210.009,507.949z"/>
<polygon fill="#EF3340" points="218,600 200,600 209.054,606.036 "/>
<path fill="#EF3340" d="M210.009,607.949c-0.264,0.272-0.609,0.408-0.954,0.408s-0.691-0.136-0.954-0.408l-7.331-4.673
	c-0.333-0.212-0.769,0.027-0.769,0.422V612c0,0.552,0.448,1,1,1h16c0.552,0,1-0.448,1-1v-8.296c0-0.396-0.439-0.635-0.771-0.42
	L210.009,607.949z"/>
<polygon fill="#40AAB8" points="218,700 200,700 209.054,706.036 "/>
<path fill="#40AAB8" d="M210.009,707.949c-0.264,0.272-0.609,0.408-0.954,0.408s-0.691-0.136-0.954-0.408l-7.331-4.673
	c-0.333-0.212-0.769,0.027-0.769,0.422V712c0,0.552,0.448,1,1,1h16c0.552,0,1-0.448,1-1v-8.296c0-0.396-0.439-0.635-0.771-0.42
	L210.009,707.949z"/>
<g>
	<path fill="#FFFFFF" d="M119.848,502.958c-0.743,0.27-1.485,0.54-2.363,0.608c0.81-0.54,1.418-1.283,1.755-2.228
		c-0.81,0.473-1.688,0.81-2.565,0.945c-0.743-0.81-1.823-1.283-2.903-1.283c-2.228,0-4.051,1.823-4.051,4.051
		c0,0.27,0,0.608,0.068,0.878c-3.376-0.135-6.413-1.823-8.439-4.253c-0.27,0.608-0.54,1.35-0.54,2.025
		c0,1.418,0.675,2.633,1.823,3.376c-0.675,0-1.283-0.203-1.823-0.54l0,0c0,1.958,1.35,3.578,3.24,3.983
		c-0.27,0.068-0.675,0.135-1.08,0.135c-0.27,0-0.54,0-0.743-0.068c0.54,1.688,2.025,2.7,3.781,2.768
		c-1.35,1.148-3.105,1.89-5.063,1.89c-0.27,0-0.675,0-0.945-0.068c1.823,1.148,3.916,1.823,6.211,1.823
		c7.426,0,11.477-6.143,11.477-11.612c0-0.135,0-0.405,0-0.54C118.7,504.443,119.375,503.7,119.848,502.958z"/>
</g>
<g>
	<path fill="#FFFFFF" d="M16.787,500H2.967C1.315,500,0,501.306,0,502.958v13.437C0,518.047,1.315,520,2.967,520H10v-8H9v-3h1
		v-1.874c0-2.214,1.051-3.126,3.667-3.126H16v2h-1.518c-1.016,0-1.482,0.694-1.482,1.404V509h2.862l-0.288,3H13v8h3.787
		c1.652,0,3.213-1.953,3.213-3.605v-13.437C20,501.306,18.439,500,16.787,500z"/>
</g>
<g>
	<path fill="#EF3340" d="M119.848,602.958c-0.743,0.27-1.485,0.54-2.363,0.608c0.81-0.54,1.418-1.283,1.755-2.228
		c-0.81,0.473-1.688,0.81-2.565,0.945c-0.743-0.81-1.823-1.283-2.903-1.283c-2.228,0-4.051,1.823-4.051,4.051
		c0,0.27,0,0.608,0.068,0.878c-3.376-0.135-6.413-1.823-8.439-4.253c-0.27,0.608-0.54,1.35-0.54,2.025
		c0,1.418,0.675,2.633,1.823,3.375c-0.675,0-1.283-0.203-1.823-0.54l0,0c0,1.958,1.35,3.578,3.24,3.983
		c-0.27,0.068-0.675,0.135-1.08,0.135c-0.27,0-0.54,0-0.743-0.068c0.54,1.688,2.025,2.7,3.781,2.768
		c-1.35,1.148-3.105,1.89-5.063,1.89c-0.27,0-0.675,0-0.945-0.068c1.823,1.148,3.916,1.823,6.211,1.823
		c7.426,0,11.477-6.143,11.477-11.612c0-0.135,0-0.405,0-0.54C118.7,604.443,119.375,603.7,119.848,602.958z"/>
</g>
<g>
	<path fill="#EF3340" d="M16.787,600H2.967C1.315,600,0,601.306,0,602.958v13.437C0,618.047,1.315,620,2.967,620H10v-8H9v-3h1
		v-1.874c0-2.214,1.051-3.126,3.667-3.126H16v2h-1.518c-1.016,0-1.482,0.694-1.482,1.404V609h2.862l-0.288,3H13v8h3.787
		c1.652,0,3.213-1.953,3.213-3.605v-13.437C20,601.306,18.439,600,16.787,600z"/>
</g>
<g>
	<path fill="#40AAB8" d="M119.848,702.958c-0.743,0.27-1.485,0.54-2.363,0.608c0.81-0.54,1.418-1.283,1.755-2.228
		c-0.81,0.473-1.688,0.81-2.565,0.945c-0.743-0.81-1.823-1.283-2.903-1.283c-2.228,0-4.051,1.823-4.051,4.051
		c0,0.27,0,0.608,0.068,0.878c-3.376-0.135-6.413-1.823-8.439-4.253c-0.27,0.608-0.54,1.35-0.54,2.025
		c0,1.418,0.675,2.633,1.823,3.375c-0.675,0-1.283-0.203-1.823-0.54l0,0c0,1.958,1.35,3.578,3.24,3.983
		c-0.27,0.068-0.675,0.135-1.08,0.135c-0.27,0-0.54,0-0.743-0.068c0.54,1.688,2.025,2.7,3.781,2.768
		c-1.35,1.148-3.105,1.89-5.063,1.89c-0.27,0-0.675,0-0.945-0.068c1.823,1.148,3.916,1.823,6.211,1.823
		c7.426,0,11.477-6.143,11.477-11.612c0-0.135,0-0.405,0-0.54C118.7,704.443,119.375,703.7,119.848,702.958z"/>
</g>
<g>
	<path fill="#40AAB8" d="M16.787,700H2.967C1.315,700,0,701.306,0,702.958v13.437C0,718.047,1.315,720,2.967,720H10v-8H9v-3h1
		v-1.874c0-2.214,1.051-3.126,3.667-3.126H16v2h-1.518c-1.016,0-1.482,0.694-1.482,1.404V709h2.862l-0.288,3H13v8h3.787
		c1.652,0,3.213-1.953,3.213-3.605v-13.437C20,701.306,18.439,700,16.787,700z"/>
</g>
<g>
	<path fill="#2F2C2F" d="M1209,3c3.308,0,6,2.692,6,6s-2.692,6-6,6s-6-2.692-6-6S1205.692,3,1209,3 M1209,0c-4.971,0-9,4.029-9,9
		s4.029,9,9,9s9-4.029,9-9S1213.971,0,1209,0L1209,0z"/>
</g>
<polyline fill="none" stroke="#2F2C2F" stroke-width="2" stroke-linejoin="round" stroke-miterlimit="10" points="1208,5 1208,10 
	1213,10 "/>
<g>
	<g>
		<path fill="#FFFFFF" d="M1209,103c3.308,0,6,2.692,6,6s-2.692,6-6,6s-6-2.692-6-6S1205.692,103,1209,103 M1209,100
			c-4.971,0-9,4.029-9,9s4.029,9,9,9s9-4.029,9-9S1213.971,100,1209,100L1209,100z"/>
	</g>
</g>
<polyline fill="none" stroke="#FFFFFF" stroke-width="2" stroke-linejoin="round" stroke-miterlimit="10" points="1208,105 
	1208,110 1213,110 "/>
<g>
	<g>
		<path fill="#EF3340" d="M1209,203c3.308,0,6,2.692,6,6s-2.692,6-6,6s-6-2.692-6-6S1205.692,203,1209,203 M1209,200
			c-4.971,0-9,4.029-9,9s4.029,9,9,9s9-4.029,9-9S1213.971,200,1209,200L1209,200z"/>
	</g>
</g>
<polyline fill="none" stroke="#EF3340" stroke-width="2" stroke-linejoin="round" stroke-miterlimit="10" points="1208,205 
	1208,210 1213,210 "/>
<g>
	<g>
		<path fill="#40AAB8" d="M1209,303c3.308,0,6,2.692,6,6s-2.692,6-6,6s-6-2.692-6-6S1205.692,303,1209,303 M1209,300
			c-4.971,0-9,4.029-9,9s4.029,9,9,9s9-4.029,9-9S1213.971,300,1209,300L1209,300z"/>
	</g>
</g>
<polyline fill="none" stroke="#40AAB8" stroke-width="2" stroke-linejoin="round" stroke-miterlimit="10" points="1208,305 
	1208,310 1213,310 "/>
<g>
	<path fill="#2F2C2F" d="M1108.5,3c1.379,0,2.5,1.122,2.5,2.5s-1.121,2.5-2.5,2.5s-2.5-1.122-2.5-2.5S1107.121,3,1108.5,3 M1108.5,0
		c-3.038,0-5.5,2.462-5.5,5.5s2.462,5.5,5.5,5.5s5.5-2.462,5.5-5.5S1111.538,0,1108.5,0L1108.5,0z"/>
</g>
<path fill="none" stroke="#2F2C2F" stroke-width="3" stroke-linejoin="round" stroke-miterlimit="10" d="M1115.5,20v-2
	c0-3.866-3.134-7-7-7s-7,3.134-7,7v2"/>
<g>
	<path fill="#2F2C2F" d="M1507,2c1.379,0,2.5,1.122,2.5,2.5S1508.379,7,1507,7s-2.5-1.122-2.5-2.5S1505.621,2,1507,2 M1507,0
		c-2.485,0-4.5,2.015-4.5,4.5s2.015,4.5,4.5,4.5s4.5-2.015,4.5-4.5S1509.485,0,1507,0L1507,0z"/>
</g>
<path fill="none" stroke="#2F2C2F" stroke-width="2" stroke-linejoin="round" stroke-miterlimit="10" d="M1513,16v-1
	c0-3.314-2.686-6-6-6s-6,2.686-6,6v1"/>
<g>
	<path fill="#FFFFFF" d="M1507,102c1.379,0,2.5,1.121,2.5,2.5s-1.121,2.5-2.5,2.5s-2.5-1.121-2.5-2.5S1505.621,102,1507,102
		 M1507,100c-2.485,0-4.5,2.015-4.5,4.5s2.015,4.5,4.5,4.5s4.5-2.015,4.5-4.5S1509.485,100,1507,100L1507,100z"/>
</g>
<path fill="none" stroke="#FFFFFF" stroke-width="2" stroke-linejoin="round" stroke-miterlimit="10" d="M1513,116v-1
	c0-3.314-2.686-6-6-6s-6,2.686-6,6v1"/>
<g>
	<path fill="#EF3340" d="M1507,202c1.379,0,2.5,1.122,2.5,2.5s-1.121,2.5-2.5,2.5s-2.5-1.122-2.5-2.5S1505.621,202,1507,202
		 M1507,200c-2.485,0-4.5,2.015-4.5,4.5s2.015,4.5,4.5,4.5s4.5-2.015,4.5-4.5S1509.485,200,1507,200L1507,200z"/>
</g>
<path fill="none" stroke="#EF3340" stroke-width="2" stroke-linejoin="round" stroke-miterlimit="10" d="M1513,216v-1
	c0-3.314-2.686-6-6-6s-6,2.686-6,6v1"/>
<g>
	<path fill="#40AAB8" d="M1507,302c1.379,0,2.5,1.121,2.5,2.5s-1.121,2.5-2.5,2.5s-2.5-1.121-2.5-2.5S1505.621,302,1507,302
		 M1507,300c-2.485,0-4.5,2.015-4.5,4.5s2.015,4.5,4.5,4.5s4.5-2.015,4.5-4.5S1509.485,300,1507,300L1507,300z"/>
</g>
<path fill="none" stroke="#40AAB8" stroke-width="2" stroke-linejoin="round" stroke-miterlimit="10" d="M1513,316v-1
	c0-3.314-2.686-6-6-6s-6,2.686-6,6v1"/>
<g>
	<g>
		<path fill="#FFFFFF" d="M1108.5,103c1.379,0,2.5,1.121,2.5,2.5s-1.121,2.5-2.5,2.5s-2.5-1.121-2.5-2.5S1107.121,103,1108.5,103
			 M1108.5,100c-3.038,0-5.5,2.462-5.5,5.5s2.462,5.5,5.5,5.5s5.5-2.462,5.5-5.5S1111.538,100,1108.5,100L1108.5,100z"/>
	</g>
</g>
<path fill="none" stroke="#FFFFFF" stroke-width="3" stroke-linejoin="round" stroke-miterlimit="10" d="M1115.5,120v-2
	c0-3.866-3.134-7-7-7s-7,3.134-7,7v2"/>
<g>
	<g>
		<path fill="#EF3340" d="M1108.5,203c1.379,0,2.5,1.122,2.5,2.5s-1.121,2.5-2.5,2.5s-2.5-1.122-2.5-2.5S1107.121,203,1108.5,203
			 M1108.5,200c-3.038,0-5.5,2.462-5.5,5.5s2.462,5.5,5.5,5.5s5.5-2.462,5.5-5.5S1111.538,200,1108.5,200L1108.5,200z"/>
	</g>
</g>
<path fill="none" stroke="#EF3340" stroke-width="3" stroke-linejoin="round" stroke-miterlimit="10" d="M1115.5,220v-2
	c0-3.866-3.134-7-7-7s-7,3.134-7,7v2"/>
<g>
	<g>
		<path fill="#40AAB8" d="M1108.5,303c1.379,0,2.5,1.121,2.5,2.5s-1.121,2.5-2.5,2.5s-2.5-1.121-2.5-2.5S1107.121,303,1108.5,303
			 M1108.5,300c-3.038,0-5.5,2.462-5.5,5.5s2.462,5.5,5.5,5.5s5.5-2.462,5.5-5.5S1111.538,300,1108.5,300L1108.5,300z"/>
	</g>
</g>
<path fill="none" stroke="#40AAB8" stroke-width="3" stroke-linejoin="round" stroke-miterlimit="10" d="M1115.5,320v-2
	c0-3.866-3.134-7-7-7s-7,3.134-7,7v2"/>
<line fill="none" stroke="#2F2C2F" stroke-width="2" stroke-linejoin="round" stroke-miterlimit="10" x1="1301" y1="0" x2="1301" y2="15"/>
<path fill="#2F2C2F" d="M1312,9.893c0,0-3.156-2.738-4.947-0.989c-2.216,2.164-4.053,0-4.053,0V0c0,0,2.147,2.968,4.122,0.989
	c2.037-2.04,4.878,0,4.878,0V9.893z"/>
<line fill="none" stroke="#FFFFFF" stroke-width="2" stroke-linejoin="round" stroke-miterlimit="10" x1="1301" y1="100" x2="1301" y2="115"/>
<path fill="#FFFFFF" d="M1312,109.893c0,0-3.156-2.738-4.947-0.989c-2.216,2.164-4.053,0-4.053,0V100c0,0,2.147,2.968,4.122,0.989
	c2.037-2.04,4.878,0,4.878,0V109.893z"/>
<line fill="none" stroke="#EF3340" stroke-width="2" stroke-linejoin="round" stroke-miterlimit="10" x1="1301" y1="200" x2="1301" y2="215"/>
<path fill="#EF3340" d="M1312,209.893c0,0-3.156-2.738-4.947-0.989c-2.216,2.164-4.053,0-4.053,0V200c0,0,2.147,2.968,4.122,0.989
	c2.037-2.04,4.878,0,4.878,0V209.893z"/>
<line fill="none" stroke="#40AAB8" stroke-width="2" stroke-linejoin="round" stroke-miterlimit="10" x1="1301" y1="300" x2="1301" y2="315"/>
<path fill="#40AAB8" d="M1312,309.893c0,0-3.156-2.738-4.947-0.989c-2.216,2.164-4.053,0-4.053,0V300c0,0,2.147,2.968,4.122,0.989
	c2.037-2.04,4.878,0,4.878,0V309.893z"/>
<g>
	<g>
		
			<line fill="none" stroke="#FFFFFF" stroke-width="3" stroke-linejoin="round" stroke-miterlimit="10" x1="315" y1="107.5" x2="304" y2="107.5"/>
	</g>
	<polyline fill="none" stroke="#FFFFFF" stroke-width="3" stroke-miterlimit="10" points="308.5,101.5 302.5,107.5 308.5,113.5 	"/>
</g>
<circle fill="#2F2C2F" cx="1402.5" cy="2.5" r="2.5"/>
<circle fill="#2F2C2F" cx="1410.5" cy="2.5" r="2.5"/>
<circle fill="#2F2C2F" cx="1418.5" cy="2.5" r="2.5"/>
<circle fill="#FFFFFF" cx="1402.5" cy="102.5" r="2.5"/>
<circle fill="#FFFFFF" cx="1410.5" cy="102.5" r="2.5"/>
<circle fill="#FFFFFF" cx="1418.5" cy="102.5" r="2.5"/>
<circle fill="#EF3340" cx="1402.5" cy="202.5" r="2.5"/>
<circle fill="#EF3340" cx="1410.5" cy="202.5" r="2.5"/>
<circle fill="#EF3340" cx="1418.5" cy="202.5" r="2.5"/>
<circle fill="#40AAB8" cx="1402.5" cy="302.5" r="2.5"/>
<circle fill="#40AAB8" cx="1410.5" cy="302.5" r="2.5"/>
<circle fill="#40AAB8" cx="1418.5" cy="302.5" r="2.5"/>
<path fill="#2F2C2F" d="M306,407.958L306,407.958c-1.1,0-2-0.9-2-2V402c0-1.1,0.9-2,2-2l0,0c1.1,0,2,0.9,2,2v3.958
	C308,407.058,307.1,407.958,306,407.958z"/>
<path fill="none" stroke="#2F2C2F" stroke-width="2" stroke-linejoin="round" stroke-miterlimit="10" d="M311,406.417
	c0,2.531-2.239,4.583-5,4.583s-5-2.052-5-4.583"/>
<line fill="none" stroke="#2F2C2F" stroke-width="2" stroke-linejoin="round" stroke-miterlimit="10" x1="306" y1="411" x2="306" y2="414"/>
<line fill="none" stroke="#2F2C2F" stroke-width="2" stroke-linejoin="round" stroke-miterlimit="10" x1="303" y1="415" x2="309" y2="415"/>
<path fill="#FFFFFF" d="M306,507.958L306,507.958c-1.1,0-2-0.9-2-2V502c0-1.1,0.9-2,2-2l0,0c1.1,0,2,0.9,2,2v3.958
	C308,507.058,307.1,507.958,306,507.958z"/>
<path fill="none" stroke="#FFFFFF" stroke-width="2" stroke-linejoin="round" stroke-miterlimit="10" d="M311,506.417
	c0,2.531-2.239,4.583-5,4.583s-5-2.052-5-4.583"/>
<line fill="none" stroke="#FFFFFF" stroke-width="2" stroke-linejoin="round" stroke-miterlimit="10" x1="306" y1="511" x2="306" y2="514"/>
<line fill="none" stroke="#FFFFFF" stroke-width="2" stroke-linejoin="round" stroke-miterlimit="10" x1="303" y1="515" x2="309" y2="515"/>
<path fill="#EF3340" d="M306,607.958L306,607.958c-1.1,0-2-0.9-2-2V602c0-1.1,0.9-2,2-2l0,0c1.1,0,2,0.9,2,2v3.958
	C308,607.058,307.1,607.958,306,607.958z"/>
<path fill="none" stroke="#EF3340" stroke-width="2" stroke-linejoin="round" stroke-miterlimit="10" d="M311,606.417
	c0,2.531-2.239,4.583-5,4.583s-5-2.052-5-4.583"/>
<line fill="none" stroke="#EF3340" stroke-width="2" stroke-linejoin="round" stroke-miterlimit="10" x1="306" y1="611" x2="306" y2="614"/>
<line fill="none" stroke="#EF3340" stroke-width="2" stroke-linejoin="round" stroke-miterlimit="10" x1="303" y1="615" x2="309" y2="615"/>
<path fill="#40AAB8" d="M306,707.958L306,707.958c-1.1,0-2-0.9-2-2V702c0-1.1,0.9-2,2-2l0,0c1.1,0,2,0.9,2,2v3.958
	C308,707.058,307.1,707.958,306,707.958z"/>
<path fill="none" stroke="#40AAB8" stroke-width="2" stroke-linejoin="round" stroke-miterlimit="10" d="M311,706.417
	c0,2.531-2.239,4.583-5,4.583s-5-2.052-5-4.583"/>
<line fill="none" stroke="#40AAB8" stroke-width="2" stroke-linejoin="round" stroke-miterlimit="10" x1="306" y1="711" x2="306" y2="714"/>
<line fill="none" stroke="#40AAB8" stroke-width="2" stroke-linejoin="round" stroke-miterlimit="10" x1="303" y1="715" x2="309" y2="715"/>
<g>
	<path fill="#2F2C2F" d="M417,402c0.542,0,1,0.458,1,1v11c0,0.542-0.458,1-1,1h-14c-0.542,0-1-0.458-1-1v-11c0-0.542,0.458-1,1-1
		H417 M417,400h-14c-1.65,0-3,1.35-3,3v11c0,1.65,1.35,3,3,3h14c1.65,0,3-1.35,3-3v-11C420,401.35,418.65,400,417,400L417,400z"/>
</g>
<circle fill="none" stroke="#2F2C2F" stroke-width="2" stroke-miterlimit="10" cx="410" cy="408" r="4"/>
<g>
	<g>
		<path fill="#2F2C2F" d="M416,401h-11.5c-1.65,0-3,1.35-3,3v4h4.5c0-2.209,1.791-4,4-4s4,1.791,4,4h5v-4
			C419,402.35,417.65,401,416,401z M417,404h-3v-2h3V404z"/>
	</g>
</g>
<path fill="#2D2D2D" d="M514.324,410.376c-0.699-1.193-0.539-1.631,0.716-2.165c0.402-0.171,0.763-0.44,1.143-0.664
	c-0.029-0.141-0.059-0.281-0.088-0.422c-0.449,0-0.918-0.082-1.344,0.018c-0.754,0.177-1.04-0.052-0.986-0.818
	c0.044-0.633,0.057-1.271,0.041-1.905c-0.068-2.605-2.006-4.406-4.739-4.421c-2.793-0.015-4.753,1.79-4.824,4.457
	c-0.015,0.555-0.014,1.115,0.039,1.666c0.085,0.887-0.159,1.294-1.133,1.009c-0.361-0.106-0.779-0.017-1.171-0.017
	c-0.033,0.149-0.067,0.298-0.1,0.447c0.349,0.211,0.679,0.468,1.051,0.625c1.389,0.59,1.513,0.99,0.707,2.319
	c-0.831,1.371-2.041,2.242-3.635,2.68c0.781,1.142,2.749,0.389,2.84,2.293c1.716-0.681,3.005-0.01,4.294,0.893
	c1.084,0.759,2.374,0.853,3.488,0.151c1.437-0.906,2.821-1.761,4.673-1.093c0.026-1.967,2.112-1.02,2.705-2.267
	C516.37,412.74,515.157,411.797,514.324,410.376z"/>
<g>
	<g>
		<path fill="#FFFFFF" d="M417,502c0.542,0,1,0.458,1,1v11c0,0.542-0.458,1-1,1h-14c-0.542,0-1-0.458-1-1v-11c0-0.542,0.458-1,1-1
			H417 M417,500h-14c-1.65,0-3,1.35-3,3v11c0,1.65,1.35,3,3,3h14c1.65,0,3-1.35,3-3v-11C420,501.35,418.65,500,417,500L417,500z"/>
	</g>
</g>
<circle fill="none" stroke="#FFFFFF" stroke-width="2" stroke-miterlimit="10" cx="410" cy="508" r="4"/>
<g>
	<g>
		<path fill="#FFFFFF" d="M416,501h-11.5c-1.65,0-3,1.35-3,3v4h4.5c0-2.209,1.791-4,4-4s4,1.791,4,4h5v-4
			C419,502.35,417.65,501,416,501z M417,504h-3v-2h3V504z"/>
	</g>
</g>
<path fill="#FFFFFF" d="M514.324,510.376c-0.699-1.193-0.539-1.631,0.716-2.165c0.402-0.171,0.763-0.44,1.143-0.664
	c-0.029-0.141-0.059-0.281-0.088-0.422c-0.449,0-0.918-0.082-1.344,0.018c-0.754,0.177-1.04-0.052-0.986-0.818
	c0.044-0.633,0.057-1.271,0.041-1.905c-0.068-2.605-2.006-4.406-4.739-4.421c-2.793-0.015-4.753,1.79-4.824,4.457
	c-0.015,0.555-0.014,1.115,0.039,1.666c0.085,0.887-0.159,1.294-1.133,1.009c-0.361-0.106-0.779-0.017-1.171-0.017
	c-0.033,0.149-0.067,0.298-0.1,0.447c0.349,0.211,0.679,0.468,1.051,0.625c1.389,0.59,1.513,0.99,0.707,2.319
	c-0.831,1.371-2.041,2.242-3.635,2.679c0.781,1.142,2.749,0.389,2.84,2.293c1.716-0.681,3.005-0.01,4.294,0.893
	c1.084,0.759,2.374,0.853,3.488,0.151c1.437-0.906,2.821-1.761,4.673-1.093c0.026-1.967,2.112-1.02,2.705-2.267
	C516.37,512.74,515.157,511.797,514.324,510.376z"/>
<g>
	<g>
		<path fill="#EF3340" d="M417,602c0.542,0,1,0.458,1,1v11c0,0.542-0.458,1-1,1h-14c-0.542,0-1-0.458-1-1v-11c0-0.542,0.458-1,1-1
			H417 M417,600h-14c-1.65,0-3,1.35-3,3v11c0,1.65,1.35,3,3,3h14c1.65,0,3-1.35,3-3v-11C420,601.35,418.65,600,417,600L417,600z"/>
	</g>
</g>
<circle fill="none" stroke="#EF3340" stroke-width="2" stroke-miterlimit="10" cx="410" cy="608" r="4"/>
<g>
	<g>
		<path fill="#EF3340" d="M416,601h-11.5c-1.65,0-3,1.35-3,3v4h4.5c0-2.209,1.791-4,4-4s4,1.791,4,4h5v-4
			C419,602.35,417.65,601,416,601z M417,604h-3v-2h3V604z"/>
	</g>
</g>
<path fill="#EF3340" d="M514.324,610.376c-0.699-1.193-0.539-1.631,0.716-2.165c0.402-0.171,0.763-0.44,1.143-0.664
	c-0.029-0.141-0.059-0.281-0.088-0.422c-0.449,0-0.918-0.082-1.344,0.018c-0.754,0.177-1.04-0.052-0.986-0.818
	c0.044-0.633,0.057-1.27,0.041-1.905c-0.068-2.605-2.006-4.406-4.739-4.421c-2.793-0.015-4.753,1.79-4.824,4.457
	c-0.015,0.555-0.014,1.115,0.039,1.666c0.085,0.887-0.159,1.294-1.133,1.009c-0.361-0.106-0.779-0.017-1.171-0.017
	c-0.033,0.149-0.067,0.298-0.1,0.447c0.349,0.211,0.679,0.468,1.051,0.625c1.389,0.59,1.513,0.99,0.707,2.319
	c-0.831,1.371-2.041,2.242-3.635,2.68c0.781,1.142,2.749,0.389,2.84,2.293c1.716-0.681,3.005-0.01,4.294,0.893
	c1.084,0.759,2.374,0.853,3.488,0.151c1.437-0.906,2.821-1.761,4.673-1.093c0.026-1.967,2.112-1.02,2.705-2.267
	C516.37,612.74,515.157,611.797,514.324,610.376z"/>
<g>
	<g>
		<path fill="#40AAB8" d="M417,702c0.542,0,1,0.458,1,1v11c0,0.542-0.458,1-1,1h-14c-0.542,0-1-0.458-1-1v-11c0-0.542,0.458-1,1-1
			H417 M417,700h-14c-1.65,0-3,1.35-3,3v11c0,1.65,1.35,3,3,3h14c1.65,0,3-1.35,3-3v-11C420,701.35,418.65,700,417,700L417,700z"/>
	</g>
</g>
<circle fill="none" stroke="#40AAB8" stroke-width="2" stroke-miterlimit="10" cx="410" cy="708" r="4"/>
<g>
	<g>
		<path fill="#40AAB8" d="M416,701h-11.5c-1.65,0-3,1.35-3,3v4h4.5c0-2.209,1.791-4,4-4s4,1.791,4,4h5v-4
			C419,702.35,417.65,701,416,701z M417,704h-3v-2h3V704z"/>
	</g>
</g>
<path fill="#40AAB8" d="M514.324,710.376c-0.699-1.193-0.539-1.631,0.716-2.165c0.402-0.171,0.763-0.44,1.143-0.664
	c-0.029-0.141-0.059-0.281-0.088-0.422c-0.449,0-0.918-0.082-1.344,0.018c-0.754,0.177-1.04-0.052-0.986-0.818
	c0.044-0.633,0.057-1.27,0.041-1.905c-0.068-2.605-2.006-4.406-4.739-4.421c-2.793-0.015-4.753,1.79-4.824,4.457
	c-0.015,0.555-0.014,1.115,0.039,1.666c0.085,0.887-0.159,1.294-1.133,1.009c-0.361-0.106-0.779-0.017-1.171-0.017
	c-0.033,0.149-0.067,0.298-0.1,0.447c0.349,0.211,0.679,0.468,1.051,0.625c1.389,0.59,1.513,0.99,0.707,2.319
	c-0.831,1.371-2.041,2.242-3.635,2.68c0.781,1.142,2.749,0.389,2.84,2.293c1.716-0.681,3.005-0.01,4.294,0.893
	c1.084,0.759,2.374,0.853,3.488,0.151c1.437-0.906,2.821-1.761,4.673-1.093c0.026-1.967,2.112-1.02,2.705-2.267
	C516.37,712.74,515.157,711.797,514.324,710.376z"/>
<g>
	<path fill="#2F2C2F" d="M613,400h-10c-1.65,0-3,1.35-3,3v7c0,1.65,1.35,3,3,3h6v4l5-4v-0.185c1.16-0.416,2-1.517,2-2.815v-7
		C616,401.35,614.65,400,613,400z M603,406h8v1h-8V406z M612,410h-9v-1h9V410z M614,404h-11v-1h11V404z"/>
</g>
<g>
	<path fill="#FFFFFF" d="M613,500h-10c-1.65,0-3,1.35-3,3v7c0,1.65,1.35,3,3,3h6v4l5-4v-0.185c1.16-0.416,2-1.517,2-2.815v-7
		C616,501.35,614.65,500,613,500z M603,506h8v1h-8V506z M612,510h-9v-1h9V510z M614,504h-11v-1h11V504z"/>
</g>
<g>
	<path fill="#EF3340" d="M613,600h-10c-1.65,0-3,1.35-3,3v7c0,1.65,1.35,3,3,3h6v4l5-4v-0.185c1.16-0.416,2-1.517,2-2.815v-7
		C616,601.35,614.65,600,613,600z M603,606h8v1h-8V606z M612,610h-9v-1h9V610z M614,604h-11v-1h11V604z"/>
</g>
<g>
	<path fill="#40AAB8" d="M613,700h-10c-1.65,0-3,1.35-3,3v7c0,1.65,1.35,3,3,3h6v4l5-4v-0.185c1.16-0.416,2-1.517,2-2.815v-7
		C616,701.35,614.65,700,613,700z M603,706h8v1h-8V706z M612,710h-9v-1h9V710z M614,704h-11v-1h11V704z"/>
</g>
<path fill="#FFFFFF" d="M709.673,506.205c1.155,1.154,2.006,0.765,2.771,0l1.385-1.384c0.765-0.765,1.015-1.754,0-2.769
	l-0.693-0.692c-1.148-1.147-3.008-1.147-4.156,0l-0.049,0.049l-2.029,2.027l-3.463,3.461l-2.078,2.077
	c-1.148,1.147-1.148,3.006,0,4.153l0.693,0.692c1.041,1.04,2.006,0.765,2.771,0l1.385-1.384c0.765-0.765,1.124-1.646,0-2.769
	l-0.693-0.692l3.463-3.461L709.673,506.205z"/>
<path fill="#EF3340" d="M709.673,606.205c1.155,1.154,2.006,0.765,2.771,0l1.385-1.384c0.765-0.765,1.015-1.754,0-2.769
	l-0.693-0.692c-1.148-1.147-3.008-1.147-4.156,0l-0.049,0.049l-2.029,2.027l-3.463,3.461l-2.078,2.076
	c-1.148,1.147-1.148,3.006,0,4.153l0.693,0.692c1.041,1.04,2.006,0.765,2.771,0l1.385-1.384c0.765-0.765,1.124-1.646,0-2.769
	l-0.693-0.692l3.463-3.461L709.673,606.205z"/>
<path fill="#40AAB8" d="M709.673,706.205c1.155,1.154,2.006,0.765,2.771,0l1.385-1.384c0.765-0.765,1.015-1.754,0-2.769
	l-0.693-0.692c-1.148-1.147-3.008-1.147-4.156,0l-0.049,0.049l-2.029,2.027l-3.463,3.461l-2.078,2.076
	c-1.148,1.147-1.148,3.006,0,4.153l0.693,0.692c1.041,1.04,2.006,0.765,2.771,0l1.385-1.384c0.765-0.765,1.124-1.646,0-2.769
	l-0.693-0.692l3.463-3.461L709.673,706.205z"/>
<polygon fill="none" stroke="#2F2C2F" stroke-width="3" stroke-miterlimit="10" points="810.87,401.5 801.5,410.789 801.5,445.5 
	837.5,445.5 837.5,401.5 "/>
<polyline fill="none" stroke="#2F2C2F" stroke-width="3" stroke-miterlimit="10" points="812.5,401.5 812.5,411.5 802.5,411.5 "/>
<polygon fill="none" stroke="#FFFFFF" stroke-width="3" stroke-miterlimit="10" points="810.87,501.5 801.5,510.789 801.5,545.5 
	837.5,545.5 837.5,501.5 "/>
<polyline fill="none" stroke="#FFFFFF" stroke-width="3" stroke-miterlimit="10" points="812.5,501.5 812.5,511.5 802.5,511.5 "/>
<polygon fill="none" stroke="#EF3340" stroke-width="3" stroke-miterlimit="10" points="810.87,601.5 801.5,610.789 801.5,645.5 
	837.5,645.5 837.5,601.5 "/>
<polyline fill="none" stroke="#EF3340" stroke-width="3" stroke-miterlimit="10" points="812.5,601.5 812.5,611.5 802.5,611.5 "/>
<polygon fill="none" stroke="#40AAB8" stroke-width="3" stroke-miterlimit="10" points="810.87,701.5 801.5,710.789 801.5,745.5 
	837.5,745.5 837.5,701.5 "/>
<polyline fill="none" stroke="#40AAB8" stroke-width="3" stroke-miterlimit="10" points="812.5,701.5 812.5,711.5 802.5,711.5 "/>
<line fill="none" stroke="#2F2C2F" stroke-width="3" stroke-miterlimit="10" x1="900" y1="419.5" x2="919" y2="419.5"/>
<g>
	<g>
		<line fill="none" stroke="#FFFFFF" stroke-width="3" stroke-miterlimit="10" x1="909.5" y1="500" x2="909.5" y2="511.5"/>
	</g>
	<polyline fill="none" stroke="#FFFFFF" stroke-width="3" stroke-miterlimit="10" points="903.5,507 909.5,513 915.5,507 	"/>
</g>
<line fill="none" stroke="#FFFFFF" stroke-width="3" stroke-miterlimit="10" x1="900" y1="519.5" x2="919" y2="519.5"/>
<g>
	<g>
		<line fill="none" stroke="#EF3340" stroke-width="3" stroke-miterlimit="10" x1="909.5" y1="600" x2="909.5" y2="611.5"/>
	</g>
	<polyline fill="none" stroke="#EF3340" stroke-width="3" stroke-miterlimit="10" points="903.5,607 909.5,613 915.5,607 	"/>
</g>
<line fill="none" stroke="#EF3340" stroke-width="3" stroke-miterlimit="10" x1="900" y1="619.5" x2="919" y2="619.5"/>
<g>
	<g>
		<line fill="none" stroke="#40AAB8" stroke-width="3" stroke-miterlimit="10" x1="909.5" y1="700" x2="909.5" y2="711.5"/>
	</g>
	<polyline fill="none" stroke="#40AAB8" stroke-width="3" stroke-miterlimit="10" points="903.5,707 909.5,713 915.5,707 	"/>
</g>
<line fill="none" stroke="#40AAB8" stroke-width="3" stroke-miterlimit="10" x1="900" y1="719.5" x2="919" y2="719.5"/>
<path fill="#2F2C2F" d="M1006,400c-3.314,0-6,2.686-6,6s6,10,6,12c0-2,6-8.686,6-12S1009.314,400,1006,400z M1006,409
	c-1.657,0-3-1.343-3-3s1.343-3,3-3s3,1.343,3,3S1007.657,409,1006,409z"/>
<path fill="#FFFFFF" d="M1006,500c-3.314,0-6,2.686-6,6s6,10,6,12c0-2,6-8.686,6-12S1009.314,500,1006,500z M1006,509
	c-1.657,0-3-1.343-3-3s1.343-3,3-3s3,1.343,3,3S1007.657,509,1006,509z"/>
<path fill="#EF3340" d="M1006,600c-3.314,0-6,2.686-6,6s6,10,6,12c0-2,6-8.686,6-12S1009.314,600,1006,600z M1006,609
	c-1.657,0-3-1.343-3-3s1.343-3,3-3s3,1.343,3,3S1007.657,609,1006,609z"/>
<path fill="#40AAB8" d="M1006,700c-3.314,0-6,2.686-6,6s6,10,6,12c0-2,6-8.686,6-12S1009.314,700,1006,700z M1006,709
	c-1.657,0-3-1.343-3-3s1.343-3,3-3s3,1.343,3,3S1007.657,709,1006,709z"/>
<g>
	<path fill="#EF3340" d="M17.169,813.505l-7.283-12.909c-0.385-0.693-1.383-0.69-1.763,0.006L0.966,813.51
		C0.599,814.181,1.084,815,1.849,815h14.44C17.057,815,17.542,814.175,17.169,813.505z M10,813H8v-2h2V813z M10,810H8v-6h2V810z"/>
</g>
<g>
	<path fill="#FFB715" d="M107,800c-3.866,0-7,3.134-7,7c0,3.866,3.134,7,7,7s7-3.134,7-7C114,803.134,110.866,800,107,800z M108,811
		h-2v-4h2V811z M108,805h-2v-2h2V805z"/>
</g>
<g>
</g>
<g>
</g>
<g>
</g>
<g>
</g>
<g>
</g>
<g>
</g>
<g>
</g>
<g>
</g>
<g>
</g>
<g>
</g>
<g>
</g>
<g>
</g>
<g>
</g>
<g>
</g>
<g>
</g>
</svg>
